<mxfile host="65bd71144e">
    <diagram id="SxU5XVyyQLdi-5wYzOt0" name="Page-1">
        <mxGraphModel dx="975" dy="560" grid="1" gridSize="10" guides="1" tooltips="1" connect="1" arrows="1" fold="1" page="1" pageScale="1" pageWidth="827" pageHeight="1169" math="0" shadow="0">
            <root>
                <mxCell id="0"/>
                <mxCell id="1" parent="0"/>
                <mxCell id="5" value="" style="whiteSpace=wrap;html=1;" parent="1" vertex="1">
                    <mxGeometry x="130" y="180" width="400" height="420" as="geometry"/>
                </mxCell>
                <mxCell id="14" value="" style="whiteSpace=wrap;html=1;" parent="1" vertex="1">
                    <mxGeometry x="180" y="280" width="350" height="80" as="geometry"/>
                </mxCell>
                <mxCell id="2" value="" style="whiteSpace=wrap;html=1;" parent="1" vertex="1">
                    <mxGeometry x="130" y="80" width="400" height="50" as="geometry"/>
                </mxCell>
                <mxCell id="4" value="" style="whiteSpace=wrap;html=1;" parent="1" vertex="1">
                    <mxGeometry x="130" y="130" width="400" height="50" as="geometry"/>
                </mxCell>
                <mxCell id="6" value="lees vereisde bedrag voor snickers" style="text;html=1;resizable=0;autosize=1;align=center;verticalAlign=middle;points=[];fillColor=none;strokeColor=none;rounded=0;fontSize=12;" parent="1" vertex="1">
                    <mxGeometry x="230" y="95" width="200" height="20" as="geometry"/>
                </mxCell>
                <mxCell id="8" value="stop munten in machine" style="text;html=1;resizable=0;autosize=1;align=center;verticalAlign=middle;points=[];fillColor=none;strokeColor=none;rounded=0;fontSize=12;" parent="1" vertex="1">
                    <mxGeometry x="260" y="145" width="140" height="20" as="geometry"/>
                </mxCell>
                <mxCell id="9" value="zolang meer munten vereist zijn" style="text;html=1;resizable=0;autosize=1;align=center;verticalAlign=middle;points=[];fillColor=none;strokeColor=none;rounded=0;fontSize=12;" parent="1" vertex="1">
                    <mxGeometry x="160" y="190" width="190" height="20" as="geometry"/>
                </mxCell>
                <mxCell id="10" value="" style="triangle;whiteSpace=wrap;html=1;fontSize=14;rotation=90;" parent="1" vertex="1">
                    <mxGeometry x="317.5" y="142.5" width="75" height="350" as="geometry"/>
                </mxCell>
                <mxCell id="11" value="" style="whiteSpace=wrap;html=1;" parent="1" vertex="1">
                    <mxGeometry x="180" y="230" width="350" height="50" as="geometry"/>
                </mxCell>
                <mxCell id="12" value="stop meer munten in machine" style="text;html=1;resizable=0;autosize=1;align=center;verticalAlign=middle;points=[];fillColor=none;strokeColor=none;rounded=0;fontSize=12;" parent="1" vertex="1">
                    <mxGeometry x="270" y="245" width="170" height="20" as="geometry"/>
                </mxCell>
                <mxCell id="13" value="bedrag voldoende?" style="text;html=1;resizable=0;autosize=1;align=center;verticalAlign=middle;points=[];fillColor=none;strokeColor=none;rounded=0;fontSize=12;" parent="1" vertex="1">
                    <mxGeometry x="295" y="300" width="120" height="20" as="geometry"/>
                </mxCell>
                <mxCell id="15" value="ja" style="text;html=1;resizable=0;autosize=1;align=center;verticalAlign=middle;points=[];fillColor=none;strokeColor=none;rounded=0;fontSize=12;" parent="1" vertex="1">
                    <mxGeometry x="470" y="320" width="30" height="20" as="geometry"/>
                </mxCell>
                <mxCell id="16" value="nee" style="text;html=1;resizable=0;autosize=1;align=center;verticalAlign=middle;points=[];fillColor=none;strokeColor=none;rounded=0;fontSize=12;" parent="1" vertex="1">
                    <mxGeometry x="210" y="320" width="40" height="20" as="geometry"/>
                </mxCell>
                <mxCell id="17" value="" style="whiteSpace=wrap;html=1;" parent="1" vertex="1">
                    <mxGeometry x="350" y="360" width="180" height="50" as="geometry"/>
                </mxCell>
                <mxCell id="18" value="" style="whiteSpace=wrap;html=1;" parent="1" vertex="1">
                    <mxGeometry x="180" y="360" width="170" height="50" as="geometry"/>
                </mxCell>
                <mxCell id="19" value="" style="whiteSpace=wrap;html=1;" parent="1" vertex="1">
                    <mxGeometry x="130" y="410" width="400" height="70" as="geometry"/>
                </mxCell>
                <mxCell id="20" value="" style="whiteSpace=wrap;html=1;" parent="1" vertex="1">
                    <mxGeometry x="130" y="460" width="400" height="90" as="geometry"/>
                </mxCell>
                <mxCell id="21" value="lees nummer voor snickers" style="text;html=1;resizable=0;autosize=1;align=center;verticalAlign=middle;points=[];fillColor=none;strokeColor=none;rounded=0;fontSize=12;" parent="1" vertex="1">
                    <mxGeometry x="360" y="375" width="160" height="20" as="geometry"/>
                </mxCell>
                <mxCell id="22" value="type in nummer voor snickers" style="text;html=1;resizable=0;autosize=1;align=center;verticalAlign=middle;points=[];fillColor=none;strokeColor=none;rounded=0;fontSize=12;" parent="1" vertex="1">
                    <mxGeometry x="245" y="425" width="170" height="20" as="geometry"/>
                </mxCell>
                <mxCell id="23" value="" style="triangle;whiteSpace=wrap;html=1;fontSize=14;rotation=90;" parent="1" vertex="1">
                    <mxGeometry x="286.87" y="310" width="86.25" height="390" as="geometry"/>
                </mxCell>
                <mxCell id="24" value="" style="whiteSpace=wrap;html=1;" parent="1" vertex="1">
                    <mxGeometry x="330" y="550" width="200" height="50" as="geometry"/>
                </mxCell>
                <mxCell id="25" value="" style="whiteSpace=wrap;html=1;" parent="1" vertex="1">
                    <mxGeometry x="130" y="550" width="200" height="50" as="geometry"/>
                </mxCell>
                <mxCell id="26" value="nee" style="text;html=1;resizable=0;autosize=1;align=center;verticalAlign=middle;points=[];fillColor=none;strokeColor=none;rounded=0;fontSize=12;" parent="1" vertex="1">
                    <mxGeometry x="170" y="510" width="40" height="20" as="geometry"/>
                </mxCell>
                <mxCell id="27" value="ja" style="text;html=1;resizable=0;autosize=1;align=center;verticalAlign=middle;points=[];fillColor=none;strokeColor=none;rounded=0;fontSize=12;" parent="1" vertex="1">
                    <mxGeometry x="460" y="510" width="30" height="20" as="geometry"/>
                </mxCell>
                <mxCell id="28" value="komt snickers uit machine?" style="text;html=1;resizable=0;autosize=1;align=center;verticalAlign=middle;points=[];fillColor=none;strokeColor=none;rounded=0;fontSize=13;" parent="1" vertex="1">
                    <mxGeometry x="250" y="480" width="170" height="20" as="geometry"/>
                </mxCell>
                <mxCell id="31" value="return: snickers uit machine" style="text;html=1;resizable=0;autosize=1;align=center;verticalAlign=middle;points=[];fillColor=none;strokeColor=none;rounded=0;" vertex="1" parent="1">
                    <mxGeometry x="350" y="565" width="160" height="20" as="geometry"/>
                </mxCell>
            </root>
        </mxGraphModel>
    </diagram>
</mxfile>